<svg width="62" height="55" viewBox="0 0 62 55" fill="none" xmlns="http://www.w3.org/2000/svg">
<path d="M3.70312 16.7344H15.6562C20.3125 16.7344 23.7656 17.4297 26.0156 18.8203C28.2812 20.1953 29.4141 22.3438 29.4141 25.2656C29.4141 27.1875 28.9219 28.8281 27.9375 30.1875C26.9531 31.5469 25.6562 32.4219 24.0469 32.8125V33.0469C26.1719 33.6094 27.7109 34.5469 28.6641 35.8594C29.6172 37.1719 30.0938 38.875 30.0938 40.9688C30.0938 44.0781 28.9219 46.5312 26.5781 48.3281C24.25 50.1094 21.0703 51 17.0391 51H3.70312V16.7344ZM12.9609 29.8828H15.75C17.0781 29.8828 18.1016 29.6094 18.8203 29.0625C19.5547 28.5156 19.9219 27.7031 19.9219 26.625C19.9219 24.7031 18.4688 23.7422 15.5625 23.7422H12.9609V29.8828ZM12.9609 36.6562V43.8516H16.2188C19.1094 43.8516 20.5547 42.6328 20.5547 40.1953C20.5547 39.0547 20.1641 38.1797 19.3828 37.5703C18.6172 36.9609 17.5 36.6562 16.0312 36.6562H12.9609Z" transform="translate(29 3)" fill="#F2F2F2"/>
<path d="M34.9519 12.5C34.9519 20.232 40.7508 29.5 34.9519 29.5C29.1529 29.5 13.9518 20.232 13.9518 12.5C13.9518 4.76801 -4.68022 0 1.11877 0C6.91776 0 34.9519 4.76801 34.9519 12.5Z" transform="translate(0 7)" fill="#F2F2F2"/>
<path d="M34.9519 12.5C34.9519 20.232 40.7508 29.5 34.9519 29.5C29.1529 29.5 13.9518 20.232 13.9518 12.5C13.9518 4.76801 -4.68022 0 1.11877 0C6.91776 0 34.9519 4.76801 34.9519 12.5Z" transform="translate(21)" fill="#F2F2F2"/>
</svg>
